<?xml version="1.0" encoding="utf-8"?>
<!-- Generator: Adobe Illustrator 27.4.1, SVG Export Plug-In . SVG Version: 6.00 Build 0)  -->
<svg version="1.1" id="Layer_1" xmlns="http://www.w3.org/2000/svg" xmlns:xlink="http://www.w3.org/1999/xlink" x="0px" y="0px"
	 viewBox="0 0 2500 441" style="enable-background:new 0 0 2500 441;" xml:space="preserve">
<style type="text/css">
	.st0{fill:#FFFFFF;}
</style>
<path class="st0" d="M259.4,240.5h-138l66.8-160.2L259.4,240.5l8.9,26.7c24.7,55.9,47.2,115.8,66.8,169.2c9-2.3,19.6-3.6,31.2-4.4
	c10.9,0.9,20.8,2.2,31.2,4.4L210.5,0.1h-13.4L1.2,436.4c7.3-2,14.8-3.4,22.3-4.4c9,0.9,15.9,2.2,26.7,4.4
	c15.3-60.2,37.8-115.1,57.9-169.2h160.3L259.4,240.5L259.4,240.5z M758.1,405.2c-38.1,27.6-89.3,37-138,35.7
	c-135.7,1.3-218-85.3-218.1-222.6C402.1,78.8,505.5-0.9,637.8,0.1c44.6-1,91.4,9.6,133.6,26.7C765.3,42.6,760.8,59,758,75.8h-4.5
	c-8.8-10.6-54.9-53-120.2-53.4c-113.6,0.4-170.3,93.3-169.2,200.3c-1.1,118.6,67.4,195.3,164.7,195.9c68.5-0.7,120.9-40.5,133.6-49
	L758.1,405.2L758.1,405.2z M878.3,245c-1.3,111.9,29.8,168.5,138,169.2c97.5-0.6,149.7-72.3,151.4-173.7V9c3.9,0,9.5,1.3,17.8,0
	c3.6,1.3,9.2,0,13.4,0v249.3c2.1,121.6-86.9,183.9-195.9,182.6c-62.4,1.3-103.6-13-138-40.1c-37.2-37.7-42.2-93.2-44.5-142.5V9
	c10.4,0,19.7,1.3,31.2,0c6.7,1.3,15.4,0,26.7,0L878.3,245L878.3,245z M1470.4,365.2h4.5L1644,9c7,0,14.5,1.3,22.3,0
	c7.2,1.3,14.7,0,22.3,0c-19.5,37.5-182.3,356.6-204.8,427.4c-4.2-2.2-8.7-3.7-13.4-4.4c-3.3,0.9-7.7,2.2-13.3,4.4
	c-69.9-148.1-174.7-375-200.3-427.4c7.5,0,18.1,1.3,26.7,0c11.4,1.3,20.7,0,31.2,0L1470.4,365.2z M2218.3,196h93.5
	c20.9-1.8,39-4.3,57.9-4.4c-0.8,4.5-2.1,10.1,0,17.8c-2.1,2.9-0.8,8.5,0,13.3c-18.9,1.4-37-1.1-57.9,0h-93.5v182.5
	c37.1-0.4,74.5-2.8,111.3-4.4c19.9-0.3,38.6-2.2,57.9-4.4c-0.6,6-1.8,11.6,0,17.8c-1.8,6.3-0.6,12.5,0,17.8h-227.1V9H2383
	c0.1,6.3-1,11.8,0,17.8c-1,6.6,0.1,12.7,0,17.8c-17.7-2.7-35.5-4.1-53.4-4.4l-62.3-4.5h-49L2218.3,196L2218.3,196z M2445.4,22.4
	h13.3c6.7-1.4,13.2,0.8,13.3,8.9c-0.1,8.1-8.3,8.9-17.8,8.9h-8.8v4.4h13.3l13.4,22.3h4.5l-13.4-22.3c7.4-1.7,13.1-5.6,13.4-13.3
	c-0.3-9.3-5.2-14.1-17.8-13.4h-17.8v49h4.5L2445.4,22.4C2445.4,22.4,2445.4,22.4,2445.4,22.4z"/>
<path class="st0" d="M2458.7,0.1c21.2,0,39.9,18.7,40.1,40.1c-0.1,25-18.8,43.7-40.1,44.5c-25.2-0.8-43.9-19.5-44.6-44.5
	C2414.9,18.8,2433.5,0.1,2458.7,0.1v4.5c-23.5-0.8-39.5,15.8-40.1,35.6c0.5,22.9,16.8,40,40.1,40.1c19.6-0.1,35.7-17.2,35.6-40.1
	c0.1-19.7-16-36.4-35.6-35.6V0.1z M1799.8,245c-1.9,111.9,29.3,168.5,138,169.2c96.9-0.6,149.2-72.3,151.4-173.7V9
	c3.4,0,9.1,1.3,13.4,0c7.5,1.3,13.1,0,17.8,0v249.3c1.5,121.6-87.4,183.9-195.8,182.6c-63,1.3-104.1-13-138-40.1
	c-37.8-37.7-42.7-93.2-44.5-142.5V9c9.9,0,19.2,1.3,26.7,0c10.5,1.3,19.3,0,31.2,0L1799.8,245L1799.8,245z"/>
</svg>
